PathFileType	4	(X/Y/Z)	E:\MAC3D_DATA\2020_06_02_vinay\TPose1.trc																																																																
DataRate	CameraRate	NumFrames	NumMarkers	Units	OrigDataRate	OrigDataStartFrame	OrigNumFrames																																																												
1000	200	11	22	mm	200	125	498																																																												
Frame#	Time	RAsis			LAsis			RPsi			LPsi			RThigh1			RThigh2			RThigh3			RKneeOut			RKneeIn			LThigh1			LThigh2			LThigh3			LKneeOut			LKneeIn			MidAsis			MidPsi			MidPelvis			RHJC			LHJC			MidHJC			RKJC			LKJC		
		X1	Y1	Z1	X2	Y2	Z2	X3	Y3	Z3	X4	Y4	Z4	X5	Y5	Z5	X6	Y6	Z6	X7	Y7	Z7	X8	Y8	Z8	X9	Y9	Z9	X10	Y10	Z10	X11	Y11	Z11	X12	Y12	Z12	X13	Y13	Z13	X14	Y14	Z14	X15	Y15	Z15	X16	Y16	Z16	X17	Y17	Z17	X18	Y18	Z18	X19	Y19	Z19	X20	Y20	Z20	X21	Y21	Z21	X22	Y22	Z22
																																																																			
125	0.62	88.0665	1581.84	197.242	89.4557	1582.95	-76.6989	210.827	1529.65	61.046	65.3125	1602.74	57.0263	10.8127	1488.39	63.575	240.663	1025.93	194.039	251.45	1031.07	-48.2241	53.1853	1069.97	115.689	53.2892	1066.7	20.6951	171.783	765.824	269.391	102.24	708.098	276.921	186.831	708.976	247.264	107.877	541.891	272.037	98.3958	525.901	160.672	192.864	777.971	-134.875	130.542	785.801	-146.955	143.34	714.771	-148.638	128.425	544.079	-145.193	106.697	526.223	-33.1579	21.8973	348.362	301.278	-1.06748	287.594	274.922	72.0551	316.279	292.22
126	0.625	88.0165	1581.84	197.256	89.4098	1582.95	-76.6828	210.807	1529.65	61.049	65.2867	1602.75	57.0233	10.8259	1488.39	63.5775	240.663	1025.93	194.006	251.446	1031.07	-48.2125	53.1393	1069.96	115.709	53.288	1066.7	20.714	171.736	765.786	269.232	102.232	708.114	276.926	186.846	708.914	247.194	107.871	541.856	272.004	98.4008	525.916	160.687	192.811	777.961	-134.887	130.552	785.828	-146.962	143.3	714.749	-148.637	128.436	544.082	-145.22	106.722	526.193	-33.1519	21.9102	348.322	301.243	-1.07396	287.598	274.928	72.0646	316.261	292.248
127	0.63	87.9984	1581.86	197.281	89.4138	1582.95	-76.6608	210.796	1529.65	61.0515	65.2687	1602.73	57.0113	10.7905	1488.42	63.5978	240.64	1025.93	194.004	251.418	1031.09	-48.2164	53.1477	1069.96	115.706	53.2934	1066.72	20.72	171.749	765.821	269.405	102.248	708.088	276.931	186.81	708.919	247.189	107.855	541.873	272.025	98.3731	525.922	160.682	192.8	777.965	-134.883	130.524	785.824	-146.957	143.29	714.765	-148.618	128.395	544.064	-145.248	106.7	526.234	-33.1369	21.9242	348.347	301.214	-1.05604	287.601	274.933	72.0345	316.263	292.219
128	0.635	87.9783	1581.84	197.277	89.3806	1582.97	-76.6551	210.773	1529.67	61.0651	65.2119	1602.75	57.0408	10.7182	1488.43	63.6304	240.626	1025.93	193.991	251.417	1031.08	-48.2137	53.1389	1069.97	115.725	53.2679	1066.7	20.7069	171.72	765.776	269.244	102.222	708.104	276.954	186.788	708.928	247.246	107.833	541.843	272	98.3518	525.896	160.692	192.8	777.977	-134.879	130.519	785.822	-146.952	143.283	714.763	-148.629	128.409	544.095	-145.229	106.647	526.22	-33.1363	21.9339	348.351	301.261	-1.06276	287.585	274.922	72.0493	316.286	292.242
129	0.64	87.953	1581.84	197.292	89.3455	1582.99	-76.6456	210.737	1529.66	61.0755	65.1971	1602.78	57.0442	10.7047	1488.42	63.6317	240.608	1025.92	194.012	251.384	1031.09	-48.1954	53.126	1069.97	115.72	53.2668	1066.72	20.7156	171.704	765.771	269.252	102.219	708.123	276.979	186.797	708.908	247.185	107.837	541.88	272.021	98.339	525.918	160.686	192.794	777.969	-134.864	130.514	785.81	-146.934	143.291	714.768	-148.618	128.385	544.098	-145.239	106.628	526.222	-33.1279	21.9022	348.327	301.246	-1.06376	287.583	274.915	72.0368	316.27	292.211
130	0.645	87.9259	1581.86	197.334	89.3166	1582.98	-76.6142	210.723	1529.7	61.1032	65.1615	1602.76	57.0595	10.7469	1488.39	63.6447	240.607	1025.93	194.023	251.364	1031.08	-48.1803	53.0847	1069.96	115.71	53.247	1066.73	20.7423	171.719	765.776	269.258	102.198	708.099	276.961	186.794	708.887	247.208	107.835	541.849	272.016	98.3521	525.887	160.657	192.795	777.979	-134.858	130.489	785.836	-146.943	143.265	714.769	-148.611	128.36	544.062	-145.215	106.673	526.213	-33.1421	21.8828	348.311	301.254	-1.06946	287.586	274.927	72.0419	316.259	292.214
131	0.65	87.9085	1581.86	197.339	89.2892	1582.98	-76.5796	210.697	1529.71	61.1395	65.147	1602.77	57.0816	10.7244	1488.38	63.6314	240.599	1025.92	194.036	251.375	1031.09	-48.1932	53.0735	1069.96	115.735	53.2202	1066.71	20.7387	171.721	765.797	269.279	102.211	708.102	276.984	186.767	708.953	247.283	107.849	541.868	272.047	98.3072	525.864	160.702	192.784	777.969	-134.839	130.498	785.838	-146.926	143.264	714.753	-148.598	128.379	544.076	-145.22	106.638	526.236	-33.1276	21.8901	348.316	301.236	-1.09182	287.573	274.917	72.0364	316.249	292.205
132	0.655	87.8781	1581.87	197.372	89.2782	1582.99	-76.5736	210.68	1529.72	61.1359	65.1283	1602.78	57.0773	10.7196	1488.38	63.6769	240.607	1025.94	194.067	251.346	1031.09	-48.1567	53.0792	1069.96	115.763	53.1445	1066.53	20.5526	171.69	765.771	269.283	102.218	708.098	276.988	186.798	708.917	247.225	107.87	541.848	272.04	98.4225	525.9	160.706	192.758	777.981	-134.835	130.434	785.803	-146.901	143.249	714.765	-148.577	128.324	544.072	-145.209	106.675	526.211	-33.1152	21.9124	348.353	301.246	-1.06897	287.58	274.936	72.0526	316.27	292.253
133	0.66	87.8875	1581.9	197.357	89.2553	1583.01	-76.541	210.659	1529.72	61.182	65.081	1602.76	57.1226	10.6692	1488.39	63.6642	240.604	1025.94	194.064	251.337	1031.1	-48.1502	53.0529	1069.98	115.768	53.1477	1066.55	20.5665	171.69	765.778	269.274	102.2	708.097	277.003	186.801	708.919	247.213	107.855	541.859	272.056	98.3769	525.901	160.737	192.772	777.979	-134.845	130.466	785.842	-146.968	143.241	714.763	-148.577	128.334	544.076	-145.207	106.634	526.21	-33.1376	21.8868	348.321	301.257	-1.07278	287.587	274.946	72.0609	316.258	292.247
134	0.665	87.8324	1581.87	197.375	89.2049	1583.01	-76.5328	210.65	1529.73	61.1713	65.0471	1602.77	57.1236	10.6751	1488.38	63.6651	240.583	1025.93	194.054	251.321	1031.08	-48.1532	53.0326	1069.98	115.773	53.1162	1066.55	20.5581	171.684	765.782	269.276	102.195	708.088	276.992	186.79	708.923	247.26	107.835	541.864	272.061	98.3095	525.893	160.76	192.726	777.975	-134.806	130.407	785.821	-146.891	143.246	714.764	-148.572	128.316	544.094	-145.185	106.668	526.204	-33.1139	21.8885	348.305	301.27	-1.06978	287.621	274.962	72.0441	316.248	292.24
135	0.67	87.7988	1581.89	197.371	89.1931	1583.01	-76.5358	210.608	1529.75	61.1976	65.0318	1602.79	57.1197	10.608	1488.39	63.697	240.511	1025.89	194.062	251.308	1031.12	-48.1417	53.0119	1069.97	115.786	53.1126	1066.54	20.5593	171.674	765.78	269.302	102.187	708.082	276.987	186.772	708.905	247.254	107.839	541.858	272.05	98.3045	525.857	160.73	192.7	777.999	-134.809	130.391	785.821	-146.87	143.221	714.768	-148.577	128.33	544.088	-145.2	106.623	526.212	-33.1353	21.8827	348.309	301.27	-1.09432	287.566	274.897	72.0659	316.272	292.253
